<svg version="1.1" xmlns="http://www.w3.org/2000/svg" width="1000" height="1000" viewBox="0 0 500 500"><path d="M0 0 C8.60826808 4.50634168 13.00343493 13.60309236 17.43359375 21.7890625 C18.66870567 24.0335806 19.90573544 26.27704426 21.14453125 28.51953125 C21.77198242 29.65696777 22.39943359 30.7944043 23.04589844 31.96630859 C25.97631495 37.221502 29.0119868 42.4131217 32.05859375 47.6015625 C36.65056371 55.43898977 41.22479195 63.28560189 45.74609375 71.1640625 C46.2560791 72.04803711 46.76606445 72.93201172 47.29150391 73.84277344 C47.99025635 75.06335449 47.99025635 75.06335449 48.703125 76.30859375 C49.11151611 77.01991455 49.51990723 77.73123535 49.94067383 78.46411133 C52.85176234 83.99782789 52.95051148 90.70658628 51.28515625 96.67578125 C49.1148227 101.54511934 45.91020175 105.26604152 40.93359375 107.3515625 C38.26730763 107.81164527 35.6302021 108.0858179 32.93359375 108.3515625 C39.11288926 119.6280649 45.46838086 130.78580578 52.02197266 141.84960938 C64.68152735 163.34955456 64.68152735 163.34955456 62.5078125 173.30078125 C60.40620303 179.86347585 56.26439484 185.21288075 50.46687317 188.9354248 C45.69179237 190.84927625 41.48793429 190.78667652 36.3894043 190.77148438 C35.33984558 190.77995392 34.29028687 190.78842346 33.20892334 190.79714966 C29.74592911 190.82051142 26.28337951 190.82154186 22.8203125 190.8203125 C20.40663984 190.82741529 17.99296887 190.83511447 15.57929993 190.84338379 C10.52132474 190.8568273 5.46350563 190.8583982 0.40551758 190.85253906 C-6.06415097 190.84664776 -12.53306787 190.87721275 -19.00259113 190.91765594 C-23.98786935 190.94355557 -28.97296723 190.94640816 -33.95830345 190.94276428 C-36.3428454 190.94445385 -38.72739582 190.95408051 -41.11187172 190.97190857 C-44.45309768 190.99413841 -47.79281071 190.98437386 -51.1340332 190.96679688 C-52.11147995 190.98006012 -53.0889267 190.99332336 -54.09599304 191.00698853 C-60.79025622 190.92550384 -65.67623976 189.40674202 -71.06640625 185.3515625 C-76.10672505 179.92962211 -78.55294497 173.96486312 -78.31225586 166.46118164 C-77.34763499 158.18383415 -72.9148549 151.21614555 -68.69140625 144.2265625 C-67.43995078 142.12065591 -66.18999162 140.01385953 -64.94140625 137.90625 C-64.30332031 136.83213867 -63.66523437 135.75802734 -63.0078125 134.65136719 C-59.83393892 129.25674001 -56.76049241 123.80628647 -53.69140625 118.3515625 C-53.12631348 117.34851074 -52.5612207 116.34545898 -51.97900391 115.31201172 C-50.67333495 112.99268298 -49.36904072 110.67259646 -48.06640625 108.3515625 C-49.93039063 108.16980469 -49.93039063 108.16980469 -51.83203125 107.984375 C-58.22533222 107.17605897 -61.5457005 104.2621928 -65.50390625 99.2890625 C-68.03464493 94.1387873 -68.00715157 88.92264297 -67.06640625 83.3515625 C-65.29193357 78.36125846 -62.72423135 73.90870329 -60.06640625 69.3515625 C-59.58864746 68.52172852 -59.11088867 67.69189453 -58.61865234 66.83691406 C-55.76327785 61.88192122 -52.87706407 56.94592271 -49.97265625 52.01953125 C-47.22829007 47.35452794 -44.52270712 42.66975668 -41.84765625 37.96484375 C-41.31893166 37.0353894 -41.31893166 37.0353894 -40.77952576 36.0871582 C-39.39506457 33.65175617 -38.01143055 31.21590931 -36.63308716 28.77703857 C-17.29928022 -5.42850759 -17.29928022 -5.42850759 0 0 Z " fill="#16684C" transform="translate(83.06640625,138.6484375)" /><path d="M0 0 C8.60826808 4.50634168 13.00343493 13.60309236 17.43359375 21.7890625 C18.66870567 24.0335806 19.90573544 26.27704426 21.14453125 28.51953125 C21.77198242 29.65696777 22.39943359 30.7944043 23.04589844 31.96630859 C25.97631495 37.221502 29.0119868 42.4131217 32.05859375 47.6015625 C36.65056371 55.43898977 41.22479195 63.28560189 45.74609375 71.1640625 C46.2560791 72.04803711 46.76606445 72.93201172 47.29150391 73.84277344 C47.99025635 75.06335449 47.99025635 75.06335449 48.703125 76.30859375 C49.11151611 77.01991455 49.51990723 77.73123535 49.94067383 78.46411133 C52.85176234 83.99782789 52.95051148 90.70658628 51.28515625 96.67578125 C49.06937534 101.64708456 45.90203174 105.0615009 40.93359375 107.3515625 C38.20101537 107.99283308 35.75579524 108.20302558 32.93359375 108.3515625 C33.26359375 109.3415625 33.59359375 110.3315625 33.93359375 111.3515625 C33.27359375 111.3515625 32.61359375 111.3515625 31.93359375 111.3515625 C31.93359375 110.3615625 31.93359375 109.3715625 31.93359375 108.3515625 C21.9286018 108.3052873 11.92363517 108.26971788 1.91855812 108.24793816 C-2.72685899 108.23748668 -7.37220306 108.22330271 -12.01757812 108.20068359 C-16.4979385 108.1790037 -20.97822847 108.16700416 -25.45863724 108.16180801 C-27.1707228 108.15810351 -28.88280437 108.15086984 -30.59486008 108.14010239 C-32.98699111 108.12565182 -35.37882867 108.12358183 -37.77099609 108.12451172 C-38.48381241 108.11732117 -39.19662872 108.11013062 -39.93104553 108.10272217 C-43.94566749 108.00767223 -43.94566749 108.00767223 -47.06640625 110.3515625 C-54.78779006 108.19797926 -60.44761204 105.64184241 -65.50390625 99.2890625 C-68.03464493 94.1387873 -68.00715157 88.92264297 -67.06640625 83.3515625 C-65.29193357 78.36125846 -62.72423135 73.90870329 -60.06640625 69.3515625 C-59.58864746 68.52172852 -59.11088867 67.69189453 -58.61865234 66.83691406 C-55.76327785 61.88192122 -52.87706407 56.94592271 -49.97265625 52.01953125 C-47.22829007 47.35452794 -44.52270712 42.66975668 -41.84765625 37.96484375 C-41.49517319 37.34520752 -41.14269012 36.72557129 -40.77952576 36.0871582 C-39.39506457 33.65175617 -38.01143055 31.21590931 -36.63308716 28.77703857 C-17.29928022 -5.42850759 -17.29928022 -5.42850759 0 0 Z " fill="#2C7C5B" transform="translate(83.06640625,138.6484375)" /><path d="M0 0 C4.62 0 9.24 0 14 0 C17.21428571 14.33035714 17.21428571 14.33035714 17 19 C17.66 19 18.32 19 19 19 C19.04898438 18.21496094 19.09796875 17.42992187 19.1484375 16.62109375 C19.5620036 10.80977697 20.11782148 5.521057 22 0 C25.96 0 29.92 0 34 0 C35.32 6.27 36.64 12.54 38 19 C38.94670346 13.12192522 38.94670346 13.12192522 39.88452148 7.24243164 C40.00384033 6.51403076 40.12315918 5.78562988 40.24609375 5.03515625 C40.42676392 3.91185913 40.42676392 3.91185913 40.61108398 2.76586914 C41 1 41 1 42 0 C44.35313555 -0.07271741 46.70833668 -0.08370868 49.0625 -0.0625 C50.35285156 -0.05347656 51.64320313 -0.04445312 52.97265625 -0.03515625 C53.97167969 -0.02355469 54.97070312 -0.01195312 56 0 C55.39442296 6.33160911 54.38452842 12.39680832 52.96875 18.59375 C52.67478333 19.90285339 52.67478333 19.90285339 52.37487793 21.23840332 C51.96370328 23.0640908 51.55014167 24.88924223 51.13427734 26.71386719 C50.49573225 29.51874656 49.86650506 32.3256054 49.23828125 35.1328125 C48.8364843 36.91158193 48.43415983 38.69023231 48.03125 40.46875 C47.84268433 41.3103064 47.65411865 42.15186279 47.45983887 43.0189209 C46.11534707 48.88465293 46.11534707 48.88465293 45 50 C42.81360547 50.07258946 40.62499611 50.08373783 38.4375 50.0625 C36.64119141 50.04896484 36.64119141 50.04896484 34.80859375 50.03515625 C33.88175781 50.02355469 32.95492187 50.01195312 32 50 C30.1538447 44.06592939 29.05853055 38.12435531 28 32 C27.01 37.94 26.02 43.88 25 50 C20.38 50 15.76 50 11 50 C9.26214719 43.36411325 7.53510526 36.72554401 5.81811523 30.08422852 C5.23222992 27.82433877 4.64337385 25.56521707 4.05151367 23.30688477 C3.20233414 20.06462762 2.36380268 16.81977756 1.52734375 13.57421875 C1.25969711 12.56163498 0.99205048 11.54905121 0.71629333 10.50578308 C0.47596878 9.56503433 0.23564423 8.62428558 -0.01196289 7.6550293 C-0.22736221 6.82674118 -0.44276154 5.99845306 -0.66468811 5.14506531 C-1 3 -1 3 0 0 Z " fill="#C18466" transform="translate(138,209)" /><path d="M0 0 C3.61328125 0.03255208 7.2265625 0.06510417 10.83984375 0.09765625 C13.47984375 6.03765625 16.11984375 11.97765625 18.83984375 18.09765625 C19.12903634 12.54823275 19.12903634 12.54823275 19.40795898 6.99829102 C19.72873264 1.20876736 19.72873264 1.20876736 20.83984375 0.09765625 C23.00465172 -0.00127315 25.1727816 -0.03205475 27.33984375 -0.02734375 C28.52578125 -0.02992188 29.71171875 -0.0325 30.93359375 -0.03515625 C33.83984375 0.09765625 33.83984375 0.09765625 34.83984375 1.09765625 C34.93815521 2.59635673 34.96782831 4.09964164 34.96923828 5.6015625 C34.97239044 6.55925537 34.9755426 7.51694824 34.97879028 8.50366211 C34.97676605 9.54530518 34.97474182 10.58694824 34.97265625 11.66015625 C34.97361298 12.72177979 34.9745697 13.78340332 34.97555542 14.87719727 C34.97623739 17.12679097 34.97438194 19.37638662 34.97021484 21.62597656 C34.96486685 25.08272696 34.97015929 28.53934742 34.9765625 31.99609375 C34.97590172 34.17578154 34.97462057 36.35546925 34.97265625 38.53515625 C34.97468048 39.57679932 34.97670471 40.61844238 34.97879028 41.69165039 C34.97406204 43.1281897 34.97406204 43.1281897 34.96923828 44.59375 C34.96844269 45.44122803 34.96764709 46.28870605 34.96682739 47.16186523 C34.83984375 49.09765625 34.83984375 49.09765625 33.83984375 50.09765625 C31.4867082 50.17037366 29.13150707 50.18136493 26.77734375 50.16015625 C25.48699219 50.15113281 24.19664062 50.14210938 22.8671875 50.1328125 C21.86816406 50.12121094 20.86914062 50.10960937 19.83984375 50.09765625 C16.44316598 43.5548753 13.49308397 36.97642719 10.83984375 30.09765625 C10.50984375 36.69765625 10.17984375 43.29765625 9.83984375 50.09765625 C5.21984375 50.09765625 0.59984375 50.09765625 -4.16015625 50.09765625 C-4.18479826 43.13761659 -4.20298847 36.17760209 -4.21508789 29.2175293 C-4.22012966 26.84773313 -4.2269629 24.4779401 -4.2355957 22.1081543 C-4.24766815 18.71011586 -4.25338596 15.3121184 -4.2578125 11.9140625 C-4.26297379 10.8474086 -4.26813507 9.7807547 -4.27345276 8.68177795 C-4.27352829 7.70083664 -4.27360382 6.71989532 -4.27368164 5.70922852 C-4.27590225 4.84096939 -4.27812286 3.97271027 -4.28041077 3.07814026 C-4.0775538 -0.26273198 -3.42572881 0.10586307 0 0 Z " fill="#C08366" transform="translate(397.16015625,208.90234375)" /><path d="M0 0 C26.91891892 0 26.91891892 0 32.375 5.3125 C36.32656639 11.84778288 36.33609867 18.00391868 36.3125 25.4375 C36.32861328 26.44876953 36.34472656 27.46003906 36.36132812 28.50195312 C36.3659371 35.5675097 35.734476 40.73627058 31.0625 46.3125 C21.61202201 54.04470926 14.79387923 50 0 50 C0 33.5 0 17 0 0 Z M14 13 C14 21.25 14 29.5 14 38 C15.65 38 17.3 38 19 38 C21.21341297 36.20418778 21.21341297 36.20418778 21.24291992 33.76928711 C21.23881104 32.8644458 21.23470215 31.95960449 21.23046875 31.02734375 C21.22853516 30.04572266 21.22660156 29.06410156 21.22460938 28.05273438 C21.21236328 27.02470703 21.20011719 25.99667969 21.1875 24.9375 C21.18685547 23.90560547 21.18621094 22.87371094 21.18554688 21.81054688 C21.60408311 17.05959754 21.60408311 17.05959754 20 13 C18.02 13 16.04 13 14 13 Z " fill="#C18466" transform="translate(435,209)" /><path d="M0 0 C25.475 0 25.475 0 31.9375 5.5 C36.22158914 10.69283533 35.25684656 16.85623473 35.29516602 23.28686523 C35.31235018 25.29499192 35.35625424 27.30283174 35.40039062 29.31054688 C35.40876953 30.58607422 35.41714844 31.86160156 35.42578125 33.17578125 C35.44036377 34.34020752 35.45494629 35.50463379 35.4699707 36.7043457 C34.78439868 41.51189728 32.54886346 44.63887757 28.9375 47.8125 C20.15823392 53.1933405 10.92885431 50 0 50 C0 33.5 0 17 0 0 Z M14 13 C14 21.25 14 29.5 14 38 C15.65 38 17.3 38 19 38 C21.1097676 34.8353486 21.25552605 34.02606227 21.265625 30.40234375 C21.26949219 29.07686523 21.26949219 29.07686523 21.2734375 27.72460938 C21.26570313 26.80486328 21.25796875 25.88511719 21.25 24.9375 C21.25773437 24.01388672 21.26546875 23.09027344 21.2734375 22.13867188 C21.27085937 21.25630859 21.26828125 20.37394531 21.265625 19.46484375 C21.26336914 18.656521 21.26111328 17.84819824 21.25878906 17.01538086 C21.17942632 14.77189944 21.17942632 14.77189944 19 13 C17.35 13 15.7 13 14 13 Z " fill="#C18466" transform="translate(275,209)" /><path d="M0 0 C4.55962397 2.649167 6.36313519 5.19990639 8.47265625 10.09375 C9.07256276 14.89263961 8.93648577 19.69858621 8.91015625 24.53125 C8.94012695 26.47741211 8.94012695 26.47741211 8.97070312 28.46289062 C8.967107 35.48611572 8.93745585 40.50678152 4.47265625 46.09375 C-0.31852467 50.43847997 -6.48883198 50.70715396 -12.6875 50.48046875 C-18.07121429 49.74733572 -21.14825676 47.54542052 -24.90234375 43.59375 C-28.68256768 37.77802087 -27.74804163 30.92160966 -27.77734375 24.21875 C-27.79796875 23.04699219 -27.81859375 21.87523437 -27.83984375 20.66796875 C-27.87075553 13.85964871 -27.8269554 8.71129298 -23.02734375 3.44921875 C-16.42184521 -1.69412516 -8.02856375 -2.87886675 0 0 Z M-11.52734375 11.09375 C-14.442277 15.46614988 -13.85705252 19.45177061 -13.83984375 24.59375 C-13.85595703 25.55667969 -13.87207031 26.51960938 -13.88867188 27.51171875 C-13.88931641 28.43597656 -13.88996094 29.36023438 -13.890625 30.3125 C-13.89360596 31.15748047 -13.89658691 32.00246094 -13.8996582 32.87304688 C-13.447708 35.56874463 -12.70842807 36.48778405 -10.52734375 38.09375 C-8.38988453 37.84228421 -7.06808596 37.63449221 -5.52734375 36.09375 C-5.27525653 32.28786856 -5.34212031 28.46949544 -5.33984375 24.65625 C-5.32759766 23.58052734 -5.31535156 22.50480469 -5.30273438 21.39648438 C-5.30080078 20.36974609 -5.29886719 19.34300781 -5.296875 18.28515625 C-5.29276611 17.33842041 -5.28865723 16.39168457 -5.28442383 15.41625977 C-5.30117869 12.90010656 -5.30117869 12.90010656 -7.52734375 11.09375 C-8.84734375 11.09375 -10.16734375 11.09375 -11.52734375 11.09375 Z " fill="#C18466" transform="translate(262.52734375,209.90625)" /><path d="M0 0 C4.55962397 2.649167 6.36313519 5.19990639 8.47265625 10.09375 C9.07256276 14.89263961 8.93648577 19.69858621 8.91015625 24.53125 C8.94012695 26.47741211 8.94012695 26.47741211 8.97070312 28.46289062 C8.967107 35.48611572 8.93745585 40.50678152 4.47265625 46.09375 C-0.31852467 50.43847997 -6.48883198 50.70715396 -12.6875 50.48046875 C-18.07121429 49.74733572 -21.14825676 47.54542052 -24.90234375 43.59375 C-28.68256768 37.77802087 -27.74804163 30.92160966 -27.77734375 24.21875 C-27.79796875 23.04699219 -27.81859375 21.87523437 -27.83984375 20.66796875 C-27.87075553 13.85964871 -27.8269554 8.71129298 -23.02734375 3.44921875 C-16.42184521 -1.69412516 -8.02856375 -2.87886675 0 0 Z M-11.52734375 11.09375 C-14.442277 15.46614988 -13.85705252 19.45177061 -13.83984375 24.59375 C-13.85595703 25.55667969 -13.87207031 26.51960938 -13.88867188 27.51171875 C-13.88931641 28.43597656 -13.88996094 29.36023438 -13.890625 30.3125 C-13.89360596 31.15748047 -13.89658691 32.00246094 -13.8996582 32.87304688 C-13.447708 35.56874463 -12.70842807 36.48778405 -10.52734375 38.09375 C-8.38988453 37.84228421 -7.06808596 37.63449221 -5.52734375 36.09375 C-5.27525653 32.28786856 -5.34212031 28.46949544 -5.33984375 24.65625 C-5.32759766 23.58052734 -5.31535156 22.50480469 -5.30273438 21.39648438 C-5.30080078 20.36974609 -5.29886719 19.34300781 -5.296875 18.28515625 C-5.29276611 17.33842041 -5.28865723 16.39168457 -5.28442383 15.41625977 C-5.30117869 12.90010656 -5.30117869 12.90010656 -7.52734375 11.09375 C-8.84734375 11.09375 -10.16734375 11.09375 -11.52734375 11.09375 Z " fill="#C18466" transform="translate(223.52734375,209.90625)" /><path d="M0 0 C5.61 0 11.22 0 17 0 C18.85460497 6.79844758 20.70593671 13.5977746 22.55419922 20.39794922 C23.18382622 22.71264921 23.81435756 25.0271034 24.44580078 27.34130859 C25.35164709 30.66179704 26.2542703 33.98314695 27.15625 37.3046875 C27.44060913 38.34430634 27.72496826 39.38392517 28.01794434 40.45504761 C28.27821411 41.41589264 28.53848389 42.37673767 28.80664062 43.36669922 C29.03758423 44.21497284 29.26852783 45.06324646 29.50646973 45.93722534 C30 48 30 48 30 50 C25.05 50 20.1 50 15 50 C14.67 48.02 14.34 46.04 14 44 C10.37 44 6.74 44 3 44 C2.67 45.98 2.34 47.96 2 50 C-2.95 50 -7.9 50 -13 50 C-10.50398406 38.97592962 -7.72999669 28.04379649 -4.8125 17.125 C-4.63251465 16.45039734 -4.4525293 15.77579468 -4.26708984 15.08074951 C-1.20221938 3.60665813 -1.20221938 3.60665813 0 0 Z M8 20 C6.2505382 26.40215071 6.2505382 26.40215071 6 33 C7.65 33 9.3 33 11 33 C10.34 28.71 9.68 24.42 9 20 C8.67 20 8.34 20 8 20 Z " fill="#C18465" transform="translate(361,209)" /><path d="M0 0 C1.1859375 0.00257813 2.371875 0.00515625 3.59375 0.0078125 C4.7796875 0.00523437 5.965625 0.00265625 7.1875 0 C10.09375 0.1328125 10.09375 0.1328125 11.09375 1.1328125 C11.18233646 3.87175335 11.20898479 6.5853452 11.19140625 9.32421875 C11.1899913 10.14405746 11.18857635 10.96389618 11.18711853 11.80857849 C11.18150289 14.43752632 11.16894779 17.06639023 11.15625 19.6953125 C11.15123701 21.47330607 11.14667376 23.25130096 11.14257812 25.02929688 C11.13152839 29.39716795 11.11425331 33.76497598 11.09375 38.1328125 C12.38152344 38.12121094 13.66929687 38.10960937 14.99609375 38.09765625 C16.67447772 38.0882798 18.35286326 38.07917945 20.03125 38.0703125 C21.30645508 38.05774414 21.30645508 38.05774414 22.60742188 38.04492188 C23.41630859 38.04169922 24.22519531 38.03847656 25.05859375 38.03515625 C25.8074585 38.02991943 26.55632324 38.02468262 27.32788086 38.01928711 C29.09375 38.1328125 29.09375 38.1328125 30.09375 39.1328125 C30.09375 42.7628125 30.09375 46.3928125 30.09375 50.1328125 C18.87375 50.1328125 7.65375 50.1328125 -3.90625 50.1328125 C-3.92915338 43.17272948 -3.94908219 36.21277617 -3.96118164 29.25268555 C-3.96622341 26.88288938 -3.97305665 24.51309635 -3.98168945 22.14331055 C-3.9937619 18.74527211 -3.99947971 15.34727465 -4.00390625 11.94921875 C-4.00906754 10.88256485 -4.01422882 9.81591095 -4.01954651 8.7169342 C-4.01962204 7.73599289 -4.01969757 6.75505157 -4.01977539 5.74438477 C-4.021996 4.87612564 -4.02421661 4.00786652 -4.02650452 3.11329651 C-3.83137113 -0.10037532 -3.26811185 0.1493492 0 0 Z " fill="#C18365" transform="translate(316.90625,208.8671875)" /><path d="M0 0 C0.33 0 0.66 0 1 0 C1 7.92 1 15.84 1 24 C1.66 24 2.32 24 3 24 C3 24.66 3 25.32 3 26 C2.34 26 1.68 26 1 26 C1 27.98 1 29.96 1 32 C-1.30845181 28.53732229 -1.24636502 27.2044191 -1.23046875 23.125 C-1.22756836 21.40023437 -1.22756836 21.40023437 -1.22460938 19.640625 C-1.21236328 18.43921875 -1.20011719 17.2378125 -1.1875 16 C-1.18685547 14.79859375 -1.18621094 13.5971875 -1.18554688 12.359375 C-1.14045603 3.4213681 -1.14045603 3.4213681 0 0 Z " fill="#B6876E" transform="translate(236,218)" /><path d="M0 0 C0.66 0 1.32 0 2 0 C2.08776185 3.68734775 2.14064603 7.37442347 2.1875 11.0625 C2.21263672 12.10083984 2.23777344 13.13917969 2.26367188 14.20898438 C2.32153999 20.28513598 1.99109732 24.66237597 -1 30 C-1.66 30.66 -2.32 31.32 -3 32 C-2.125 27.125 -2.125 27.125 -1 26 C-0.84193469 24.07521187 -0.748865 22.1450079 -0.68359375 20.21484375 C-0.64169922 19.04501953 -0.59980469 17.87519531 -0.55664062 16.66992188 C-0.49766602 14.82237305 -0.49766602 14.82237305 -0.4375 12.9375 C-0.39431641 11.70193359 -0.35113281 10.46636719 -0.30664062 9.19335938 C-0.20015802 6.12902665 -0.09814576 3.06460927 0 0 Z " fill="#B0816A" transform="translate(469,223)" /><path d="M0 0 C5.61 0 11.22 0 17 0 C17.66 2.97 18.32 5.94 19 9 C18.01 8.67 17.02 8.34 16 8 C16 6.02 16 4.04 16 2 C15.34 2.165 14.68 2.33 14 2.5 C11.51304731 2.91449211 9.43460727 3.03733992 6.9375 3 C3.93409682 3 1.79455673 3.06848109 -1 4 C-0.67 2.68 -0.34 1.36 0 0 Z " fill="#B2836B" transform="translate(361,209)" /><path d="M0 0 C2.97922593 -0.02683987 5.95821295 -0.04676037 8.9375 -0.0625 C9.78763672 -0.07087891 10.63777344 -0.07925781 11.51367188 -0.08789062 C12.32255859 -0.09111328 13.13144531 -0.09433594 13.96484375 -0.09765625 C14.7137085 -0.10289307 15.46257324 -0.10812988 16.23413086 -0.11352539 C18 0 18 0 19 1 C19.07226502 2.85287502 19.0838122 4.70833878 19.0625 6.5625 C19.05347656 7.57441406 19.04445313 8.58632812 19.03515625 9.62890625 C19.02355469 10.41136719 19.01195312 11.19382812 19 12 C18.01 11.67 17.02 11.34 16 11 C16.66 11 17.32 11 18 11 C17.67 8.36 17.34 5.72 17 3 C11.39 2.67 5.78 2.34 0 2 C0 1.34 0 0.68 0 0 Z " fill="#B28773" transform="translate(328,247)" /><path d="M0 0 C1.93166016 0.01740234 1.93166016 0.01740234 3.90234375 0.03515625 C5.19269531 0.04417969 6.48304688 0.05320313 7.8125 0.0625 C8.81152344 0.07410156 9.81054688 0.08570313 10.83984375 0.09765625 C10.83984375 1.08765625 10.83984375 2.07765625 10.83984375 3.09765625 C7.1624877 4.3234416 6.28917852 3.56362353 2.83984375 2.09765625 C1.84984375 2.09765625 0.85984375 2.09765625 -0.16015625 2.09765625 C-0.49015625 5.06765625 -0.82015625 8.03765625 -1.16015625 11.09765625 C-2.96707303 7.4838227 -3.72173391 5.04345729 -4.16015625 1.09765625 C-3.16015625 0.09765625 -3.16015625 0.09765625 0 0 Z " fill="#B2826E" transform="translate(141.16015625,208.90234375)" /><path d="M0 0 C0.99 0.33 1.98 0.66 3 1 C3 13.54 3 26.08 3 39 C2.67 39 2.34 39 2 39 C1.67 27.12 1.34 15.24 1 3 C0.34 2.67 -0.32 2.34 -1 2 C-0.67 1.34 -0.34 0.68 0 0 Z " fill="#AE7C62" transform="translate(325,209)" /><path d="M0 0 C3.96 0 7.92 0 12 0 C12.33 2.97 12.66 5.94 13 9 C11 5 11 5 11 3 C7.7 2.67 4.4 2.34 1 2 C0.01 3.485 0.01 3.485 -1 5 C-0.67 3.35 -0.34 1.7 0 0 Z " fill="#B3836D" transform="translate(160,209)" /><path d="M0 0 C-0.99 0 -1.98 0 -3 0 C-3 0.66 -3 1.32 -3 2 C-3.54269531 2.26554688 -4.08539063 2.53109375 -4.64453125 2.8046875 C-5.35996094 3.15789062 -6.07539063 3.51109375 -6.8125 3.875 C-7.52019531 4.22304687 -8.22789062 4.57109375 -8.95703125 4.9296875 C-11.21246418 6.0656486 -11.21246418 6.0656486 -14 8 C-12.50521886 4.19510255 -10.30557786 2.33809165 -7 0 C-3.86650268 -1.04449911 -3.01031744 -0.93423645 0 0 Z " fill="#B4826D" transform="translate(212,210)" /><path d="M0 0 C2.52588702 2.36292656 3.88820837 3.66462511 5 7 C5.03954234 9.33299825 5.04401732 11.66708189 5 14 C3 12 3 12 2.875 9.375 C2.91625 8.59125 2.9575 7.8075 3 7 C2.34 7 1.68 7 1 7 C0.67 4.69 0.34 2.38 0 0 Z " fill="#B2826B" transform="translate(266,213)" /><path d="M0 0 C0.33 1.32 0.66 2.64 1 4 C-2.63 3.67 -6.26 3.34 -10 3 C-10 2.34 -10 1.68 -10 1 C-6.56484998 0.37542727 -3.50935186 0 0 0 Z " fill="#B8856E" transform="translate(408,209)" /><path d="M0 0 C-0.50522222 4.37859255 -3.17827222 6.81651224 -6 10 C-6.33 9.01 -6.66 8.02 -7 7 C-6.34 6.67 -5.68 6.34 -5 6 C-4.835 5.175 -4.67 4.35 -4.5 3.5 C-4.335 2.675 -4.17 1.85 -4 1 C-2 0 -2 0 0 0 Z " fill="#22604B" transform="translate(144,314)" /><path d="M0 0 C2.22825644 2.22825644 2.69239369 3.65761628 3.625 6.625 C3.88539063 7.44226563 4.14578125 8.25953125 4.4140625 9.1015625 C4.60742188 9.72804687 4.80078125 10.35453125 5 11 C4.01 10.67 3.02 10.34 2 10 C0.8125 7.4375 0.8125 7.4375 0 5 C-0.66 5 -1.32 5 -2 5 C-2 4.34 -2 3.68 -2 3 C-1.34 3 -0.68 3 0 3 C0 2.01 0 1.02 0 0 Z " fill="#B38264" transform="translate(411,218)" /><path d="M0 0 C2.61500768 2.36595933 4.38999603 4.86049226 6 8 C5.67 8.66 5.34 9.32 5 10 C0.07692308 5.69230769 0.07692308 5.69230769 -0.3125 2.1875 C-0.209375 1.465625 -0.10625 0.74375 0 0 Z " fill="#367156" transform="translate(107,174)" /><path d="M0 0 C1.98 0.99 1.98 0.99 4 2 C3.835 2.721875 3.67 3.44375 3.5 4.1875 C3.02412881 6.86427545 2.922557 9.28949487 3 12 C0.60926555 8.17482487 0.44033448 4.40334476 0 0 Z " fill="#B8826D" transform="translate(140,220)" /><path d="M0 0 C1.0625 1.875 1.0625 1.875 2 4 C1.67 4.66 1.34 5.32 1 6 C0.34 6 -0.32 6 -1 6 C-1.33 6.99 -1.66 7.98 -2 9 C-2.66 9 -3.32 9 -4 9 C-2.80100302 5.9168649 -1.52299523 2.93720508 0 0 Z " fill="#337459" transform="translate(42,175)" /><path d="M0 0 C-0.33 1.65 -0.66 3.3 -1 5 C-1.99 5.33 -2.98 5.66 -4 6 C-4.33 4.35 -4.66 2.7 -5 1 C-2 0 -2 0 0 0 Z " fill="#33755E" transform="translate(134,233)" /><path d="M0 0 C0.33 0 0.66 0 1 0 C0.67 3.63 0.34 7.26 0 11 C-2.1519437 7.77208445 -2.20086443 6.71599191 -2 3 C-1.34 3 -0.68 3 0 3 C0 2.01 0 1.02 0 0 Z " fill="#B6836A" transform="translate(163,247)" /><path d="M0 0 C0.66 0 1.32 0 2 0 C2.33 1.32 2.66 2.64 3 4 C2.360625 4.103125 1.72125 4.20625 1.0625 4.3125 C0.381875 4.539375 -0.29875 4.76625 -1 5 C-1.33 5.99 -1.66 6.98 -2 8 C-1.125 2.25 -1.125 2.25 0 0 Z " fill="#195B44" transform="translate(24,266)" /><path d="M0 0 C0.6875 1.75 0.6875 1.75 1 4 C-0.3125 6.25 -0.3125 6.25 -2 8 C-2.66 8 -3.32 8 -4 8 C-2.87548273 5.0280615 -1.77706209 2.66559313 0 0 Z " fill="#21604B" transform="translate(35,248)" /><path d="M0 0 C0.66 0 1.32 0 2 0 C2 1.98 2 3.96 2 6 C1.01 6.33 0.02 6.66 -1 7 C-1.33 6.01 -1.66 5.02 -2 4 C-1.34 4 -0.68 4 0 4 C0 2.68 0 1.36 0 0 Z " fill="#B47D5E" transform="translate(417,226)" /><path d="M0 0 C0.33 0 0.66 0 1 0 C1.33 2.97 1.66 5.94 2 9 C0.68 8.67 -0.64 8.34 -2 8 C-1.34 5.36 -0.68 2.72 0 0 Z " fill="#B8826A" transform="translate(173,218)" /></svg>