<?xml version="1.0" encoding="UTF-8" standalone="no" ?>
<!DOCTYPE svg PUBLIC "-//W3C//DTD SVG 1.1//EN" "http://www.w3.org/Graphics/SVG/1.1/DTD/svg11.dtd">
<svg xmlns="http://www.w3.org/2000/svg" xmlns:xlink="http://www.w3.org/1999/xlink" version="1.1" width="1080" height="1080" viewBox="0 0 1080 1080" xml:space="preserve">
<desc>Created with Fabric.js 5.2.4</desc>
<defs>
</defs>
<rect x="0" y="0" width="100%" height="100%" fill="transparent"></rect>
<g transform="matrix(1 0 0 1 540 540)" id="73c4a077-b42a-4948-ac95-5d28aa70f68b"  >
<rect style="stroke: none; stroke-width: 1; stroke-dasharray: none; stroke-linecap: butt; stroke-dashoffset: 0; stroke-linejoin: miter; stroke-miterlimit: 4; fill: rgb(255,255,255); fill-rule: nonzero; opacity: 1; visibility: hidden;" vector-effect="non-scaling-stroke"  x="-540" y="-540" rx="0" ry="0" width="1080" height="1080" />
</g>
<g transform="matrix(1 0 0 1 540 540)" id="ab658448-7a71-4596-81f8-4b37b6f14903"  >
</g>
<g transform="matrix(2.22 0 0 2.22 540 499.23)"  >
<g style="" vector-effect="non-scaling-stroke"   >
		<g transform="matrix(1 0 0 1 -162.35 0)"  >
<path style="stroke: none; stroke-width: 1; stroke-dasharray: none; stroke-linecap: butt; stroke-dashoffset: 0; stroke-linejoin: miter; stroke-miterlimit: 4; fill: rgb(22,104,76); fill-rule: nonzero; opacity: 1;" vector-effect="non-scaling-stroke"  transform=" translate(7.37, -94.18)" d="M 0 0 C 8.60826808 4.50634168 13.00343493 13.60309236 17.43359375 21.7890625 C 18.66870567 24.0335806 19.90573544 26.27704426 21.14453125 28.51953125 C 21.77198242 29.65696777 22.39943359 30.7944043 23.04589844 31.96630859 C 25.97631495 37.221502 29.0119868 42.4131217 32.05859375 47.6015625 C 36.65056371 55.43898977 41.22479195 63.28560189 45.74609375 71.1640625 C 46.2560791 72.04803711 46.76606445 72.93201172 47.29150391 73.84277344 C 47.99025635 75.06335449 47.99025635 75.06335449 48.703125 76.30859375 C 49.11151611 77.01991455 49.51990723 77.73123535 49.94067383 78.46411133 C 52.85176234 83.99782789 52.95051148 90.70658628 51.28515625 96.67578125 C 49.1148227 101.54511934 45.91020175 105.26604152 40.93359375 107.3515625 C 38.26730763 107.81164527 35.6302021 108.0858179 32.93359375 108.3515625 C 39.11288926 119.6280649 45.46838086 130.78580578 52.02197266 141.84960938 C 64.68152735 163.34955456 64.68152735 163.34955456 62.5078125 173.30078125 C 60.40620303 179.86347585 56.26439484 185.21288075 50.46687317 188.9354248 C 45.69179237 190.84927625 41.48793429 190.78667652 36.3894043 190.77148438 C 35.33984558 190.77995392 34.29028687 190.78842346 33.20892334 190.79714966 C 29.74592911 190.82051142 26.28337951 190.82154186 22.8203125 190.8203125 C 20.40663984 190.82741529 17.99296887 190.83511447 15.57929993 190.84338379 C 10.52132474 190.8568273 5.46350563 190.8583982 0.40551758 190.85253906 C -6.06415097 190.84664776 -12.53306787 190.87721275 -19.00259113 190.91765594 C -23.98786935 190.94355557 -28.97296723 190.94640816 -33.95830345 190.94276428 C -36.3428454 190.94445385 -38.72739582 190.95408051 -41.11187172 190.97190857 C -44.45309768 190.99413841 -47.79281071 190.98437386 -51.1340332 190.96679688 C -52.11147995 190.98006012 -53.0889267 190.99332336 -54.09599304 191.00698853 C -60.79025622 190.92550384 -65.67623976 189.40674202 -71.06640625 185.3515625 C -76.10672505 179.92962211 -78.55294497 173.96486312 -78.31225586 166.46118164 C -77.34763499 158.18383415 -72.9148549 151.21614555 -68.69140625 144.2265625 C -67.43995078 142.12065591 -66.18999162 140.01385953 -64.94140625 137.90625 C -64.30332031 136.83213867 -63.66523437 135.75802734 -63.0078125 134.65136719 C -59.83393892 129.25674001 -56.76049241 123.80628647 -53.69140625 118.3515625 C -53.12631348 117.34851074 -52.5612207 116.34545898 -51.97900391 115.31201172 C -50.67333495 112.99268298 -49.36904072 110.67259646 -48.06640625 108.3515625 C -49.93039063 108.16980469 -49.93039063 108.16980469 -51.83203125 107.984375 C -58.22533222 107.17605897 -61.5457005 104.2621928 -65.50390625 99.2890625 C -68.03464493 94.1387873 -68.00715157 88.92264297 -67.06640625 83.3515625 C -65.29193357 78.36125846 -62.72423135 73.90870329 -60.06640625 69.3515625 C -59.58864746 68.52172852 -59.11088867 67.69189453 -58.61865234 66.83691406 C -55.76327785 61.88192122 -52.87706407 56.94592271 -49.97265625 52.01953125 C -47.22829007 47.35452794 -44.52270712 42.66975668 -41.84765625 37.96484375 C -41.31893166 37.0353894 -41.31893166 37.0353894 -40.77952576 36.0871582 C -39.39506457 33.65175617 -38.01143055 31.21590931 -36.63308716 28.77703857 C -17.29928022 -5.42850759 -17.29928022 -5.42850759 0 0 Z" stroke-linecap="round" />
</g>
		<g transform="matrix(1 0 0 1 -162.62 -39.83)"  >
<path style="stroke: none; stroke-width: 1; stroke-dasharray: none; stroke-linecap: butt; stroke-dashoffset: 0; stroke-linejoin: miter; stroke-miterlimit: 4; fill: rgb(44,124,91); fill-rule: nonzero; opacity: 1;" vector-effect="non-scaling-stroke"  transform=" translate(7.64, -54.35)" d="M 0 0 C 8.60826808 4.50634168 13.00343493 13.60309236 17.43359375 21.7890625 C 18.66870567 24.0335806 19.90573544 26.27704426 21.14453125 28.51953125 C 21.77198242 29.65696777 22.39943359 30.7944043 23.04589844 31.96630859 C 25.97631495 37.221502 29.0119868 42.4131217 32.05859375 47.6015625 C 36.65056371 55.43898977 41.22479195 63.28560189 45.74609375 71.1640625 C 46.2560791 72.04803711 46.76606445 72.93201172 47.29150391 73.84277344 C 47.99025635 75.06335449 47.99025635 75.06335449 48.703125 76.30859375 C 49.11151611 77.01991455 49.51990723 77.73123535 49.94067383 78.46411133 C 52.85176234 83.99782789 52.95051148 90.70658628 51.28515625 96.67578125 C 49.06937534 101.64708456 45.90203174 105.0615009 40.93359375 107.3515625 C 38.20101537 107.99283308 35.75579524 108.20302558 32.93359375 108.3515625 C 33.26359375 109.3415625 33.59359375 110.3315625 33.93359375 111.3515625 C 33.27359375 111.3515625 32.61359375 111.3515625 31.93359375 111.3515625 C 31.93359375 110.3615625 31.93359375 109.3715625 31.93359375 108.3515625 C 21.9286018 108.3052873 11.92363517 108.26971788 1.91855812 108.24793816 C -2.72685899 108.23748668 -7.37220306 108.22330271 -12.01757812 108.20068359 C -16.4979385 108.1790037 -20.97822847 108.16700416 -25.45863724 108.16180801 C -27.1707228 108.15810351 -28.88280437 108.15086984 -30.59486008 108.14010239 C -32.98699111 108.12565182 -35.37882867 108.12358183 -37.77099609 108.12451172 C -38.48381241 108.11732117 -39.19662872 108.11013062 -39.93104553 108.10272217 C -43.94566749 108.00767223 -43.94566749 108.00767223 -47.06640625 110.3515625 C -54.78779006 108.19797926 -60.44761204 105.64184241 -65.50390625 99.2890625 C -68.03464493 94.1387873 -68.00715157 88.92264297 -67.06640625 83.3515625 C -65.29193357 78.36125846 -62.72423135 73.90870329 -60.06640625 69.3515625 C -59.58864746 68.52172852 -59.11088867 67.69189453 -58.61865234 66.83691406 C -55.76327785 61.88192122 -52.87706407 56.94592271 -49.97265625 52.01953125 C -47.22829007 47.35452794 -44.52270712 42.66975668 -41.84765625 37.96484375 C -41.49517319 37.34520752 -41.14269012 36.72557129 -40.77952576 36.0871582 C -39.39506457 33.65175617 -38.01143055 31.21590931 -36.63308716 28.77703857 C -17.29928022 -5.42850759 -17.29928022 -5.42850759 0 0 Z" stroke-linecap="round" />
</g>
		<g transform="matrix(1 0 0 1 -72.48 1.17)"  >
<path style="stroke: none; stroke-width: 1; stroke-dasharray: none; stroke-linecap: butt; stroke-dashoffset: 0; stroke-linejoin: miter; stroke-miterlimit: 4; fill: rgb(193,132,102); fill-rule: nonzero; opacity: 1;" vector-effect="non-scaling-stroke"  transform=" translate(-27.57, -25)" d="M 0 0 C 4.62 0 9.24 0 14 0 C 17.21428571 14.33035714 17.21428571 14.33035714 17 19 C 17.66 19 18.32 19 19 19 C 19.04898438 18.21496094 19.09796875 17.42992188 19.1484375 16.62109375 C 19.5620036 10.80977697 20.11782148 5.521057 22 0 C 25.96 0 29.92 0 34 0 C 35.32 6.27 36.64 12.54 38 19 C 38.94670346 13.12192522 38.94670346 13.12192522 39.88452148 7.24243164 C 40.00384033 6.51403076 40.12315918 5.78562988 40.24609375 5.03515625 C 40.42676392 3.91185913 40.42676392 3.91185913 40.61108398 2.76586914 C 41 1 41 1 42 0 C 44.35313555 -0.07271741 46.70833668 -0.08370868 49.0625 -0.0625 C 50.35285156 -0.05347656 51.64320313 -0.04445313 52.97265625 -0.03515625 C 53.97167969 -0.02355469 54.97070312 -0.01195313 56 0 C 55.39442296 6.33160911 54.38452842 12.39680832 52.96875 18.59375 C 52.67478333 19.90285339 52.67478333 19.90285339 52.37487793 21.23840332 C 51.96370328 23.0640908 51.55014167 24.88924223 51.13427734 26.71386719 C 50.49573225 29.51874656 49.86650506 32.3256054 49.23828125 35.1328125 C 48.8364843 36.91158193 48.43415983 38.69023231 48.03125 40.46875 C 47.84268433 41.3103064 47.65411865 42.15186279 47.45983887 43.0189209 C 46.11534707 48.88465293 46.11534707 48.88465293 45 50 C 42.81360547 50.07258946 40.62499611 50.08373783 38.4375 50.0625 C 36.64119141 50.04896484 36.64119141 50.04896484 34.80859375 50.03515625 C 33.88175781 50.02355469 32.95492187 50.01195312 32 50 C 30.1538447 44.06592939 29.05853055 38.12435531 28 32 C 27.01 37.94 26.02 43.88 25 50 C 20.38 50 15.76 50 11 50 C 9.26214719 43.36411325 7.53510526 36.72554401 5.81811523 30.08422852 C 5.23222992 27.82433877 4.64337385 25.56521707 4.05151367 23.30688477 C 3.20233414 20.06462762 2.36380268 16.81977756 1.52734375 13.57421875 C 1.25969711 12.56163498 0.99205048 11.54905121 0.71629333 10.50578308 C 0.47596878 9.56503433 0.23564423 8.62428558 -0.01196289 7.6550293 C -0.22736221 6.82674118 -0.44276154 5.99845306 -0.66468811 5.14506531 C -1 3 -1 3 0 0 Z" stroke-linecap="round" />
</g>
		<g transform="matrix(1 0 0 1 174.46 1.14)"  >
<path style="stroke: none; stroke-width: 1; stroke-dasharray: none; stroke-linecap: butt; stroke-dashoffset: 0; stroke-linejoin: miter; stroke-miterlimit: 4; fill: rgb(194,131,101); fill-rule: nonzero; opacity: 1;" vector-effect="non-scaling-stroke"  transform=" translate(-15.35, -25.07)" d="M 0 0 C 3.61328125 0.03255208 7.2265625 0.06510417 10.83984375 0.09765625 C 13.47984375 6.03765625 16.11984375 11.97765625 18.83984375 18.09765625 C 19.12903634 12.54823275 19.12903634 12.54823275 19.40795898 6.99829102 C 19.72873264 1.20876736 19.72873264 1.20876736 20.83984375 0.09765625 C 23.00465172 -0.00127315 25.1727816 -0.03205475 27.33984375 -0.02734375 C 28.52578125 -0.02992187 29.71171875 -0.0325 30.93359375 -0.03515625 C 33.83984375 0.09765625 33.83984375 0.09765625 34.83984375 1.09765625 C 34.93815521 2.59635673 34.96782831 4.09964164 34.96923828 5.6015625 C 34.97239044 6.55925537 34.9755426 7.51694824 34.97879028 8.50366211 C 34.97676605 9.54530518 34.97474182 10.58694824 34.97265625 11.66015625 C 34.97361298 12.72177979 34.9745697 13.78340332 34.97555542 14.87719727 C 34.97623739 17.12679097 34.97438194 19.37638662 34.97021484 21.62597656 C 34.96486685 25.08272696 34.97015929 28.53934742 34.9765625 31.99609375 C 34.97590172 34.17578154 34.97462057 36.35546925 34.97265625 38.53515625 C 34.97468048 39.57679932 34.97670471 40.61844238 34.97879028 41.69165039 C 34.97406204 43.1281897 34.97406204 43.1281897 34.96923828 44.59375 C 34.96844269 45.44122803 34.96764709 46.28870605 34.96682739 47.16186523 C 34.83984375 49.09765625 34.83984375 49.09765625 33.83984375 50.09765625 C 31.4867082 50.17037366 29.13150707 50.18136493 26.77734375 50.16015625 C 25.48699219 50.15113281 24.19664062 50.14210937 22.8671875 50.1328125 C 21.86816406 50.12121094 20.86914062 50.10960937 19.83984375 50.09765625 C 16.44316598 43.5548753 13.49308397 36.97642719 10.83984375 30.09765625 C 10.50984375 36.69765625 10.17984375 43.29765625 9.83984375 50.09765625 C 5.21984375 50.09765625 0.59984375 50.09765625 -4.16015625 50.09765625 C -4.18479826 43.13761659 -4.20298847 36.17760209 -4.21508789 29.2175293 C -4.22012966 26.84773313 -4.2269629 24.4779401 -4.2355957 22.1081543 C -4.24766815 18.71011586 -4.25338596 15.3121184 -4.2578125 11.9140625 C -4.26297379 10.8474086 -4.26813507 9.7807547 -4.27345276 8.68177795 C -4.27352829 7.70083664 -4.27360382 6.71989532 -4.27368164 5.70922852 C -4.27590225 4.84096939 -4.27812286 3.97271027 -4.28041077 3.07814026 C -4.0775538 -0.26273198 -3.42572881 0.10586307 0 0 Z" stroke-linecap="round" />
</g>
		<g transform="matrix(1 0 0 1 215.13 1.7)"  >
<path style="stroke: none; stroke-width: 1; stroke-dasharray: none; stroke-linecap: butt; stroke-dashoffset: 0; stroke-linejoin: miter; stroke-miterlimit: 4; fill: rgb(192,132,102); fill-rule: nonzero; opacity: 1;" vector-effect="non-scaling-stroke"  transform=" translate(-18.18, -25.53)" d="M 0 0 C 26.91891892 0 26.91891892 0 32.375 5.3125 C 36.32656639 11.84778288 36.33609867 18.00391868 36.3125 25.4375 C 36.32861328 26.44876953 36.34472656 27.46003906 36.36132812 28.50195312 C 36.3659371 35.5675097 35.734476 40.73627058 31.0625 46.3125 C 21.61202201 54.04470926 14.79387923 50 0 50 C 0 33.5 0 17 0 0 Z M 14 13 C 14 21.25 14 29.5 14 38 C 15.65 38 17.3 38 19 38 C 21.21341297 36.20418778 21.21341297 36.20418778 21.24291992 33.76928711 C 21.23881104 32.8644458 21.23470215 31.95960449 21.23046875 31.02734375 C 21.22853516 30.04572266 21.22660156 29.06410156 21.22460938 28.05273438 C 21.21236328 27.02470703 21.20011719 25.99667969 21.1875 24.9375 C 21.18685547 23.90560547 21.18621094 22.87371094 21.18554688 21.81054688 C 21.60408311 17.05959754 21.60408311 17.05959754 20 13 C 18.02 13 16.04 13 14 13 Z" stroke-linecap="round" />
</g>
		<g transform="matrix(1 0 0 1 54.69 1.64)"  >
<path style="stroke: none; stroke-width: 1; stroke-dasharray: none; stroke-linecap: butt; stroke-dashoffset: 0; stroke-linejoin: miter; stroke-miterlimit: 4; fill: rgb(194,131,102); fill-rule: nonzero; opacity: 1;" vector-effect="non-scaling-stroke"  transform=" translate(-17.73, -25.47)" d="M 0 0 C 25.475 0 25.475 0 31.9375 5.5 C 36.22158914 10.69283533 35.25684656 16.85623473 35.29516602 23.28686523 C 35.31235018 25.29499192 35.35625424 27.30283174 35.40039062 29.31054688 C 35.40876953 30.58607422 35.41714844 31.86160156 35.42578125 33.17578125 C 35.44036377 34.34020752 35.45494629 35.50463379 35.4699707 36.7043457 C 34.78439868 41.51189728 32.54886346 44.63887757 28.9375 47.8125 C 20.15823392 53.1933405 10.92885431 50 0 50 C 0 33.5 0 17 0 0 Z M 14 13 C 14 21.25 14 29.5 14 38 C 15.65 38 17.3 38 19 38 C 21.1097676 34.8353486 21.25552605 34.02606227 21.265625 30.40234375 C 21.26949219 29.07686523 21.26949219 29.07686523 21.2734375 27.72460938 C 21.26570313 26.80486328 21.25796875 25.88511719 21.25 24.9375 C 21.25773437 24.01388672 21.26546875 23.09027344 21.2734375 22.13867188 C 21.27085937 21.25630859 21.26828125 20.37394531 21.265625 19.46484375 C 21.26336914 18.656521 21.26111328 17.84819824 21.25878906 17.01538086 C 21.17942632 14.77189944 21.17942632 14.77189944 19 13 C 17.35 13 15.7 13 14 13 Z" stroke-linecap="round" />
</g>
		<g transform="matrix(1 0 0 1 15.03 1.58)"  >
<path style="stroke: none; stroke-width: 1; stroke-dasharray: none; stroke-linecap: butt; stroke-dashoffset: 0; stroke-linejoin: miter; stroke-miterlimit: 4; fill: rgb(193,132,102); fill-rule: nonzero; opacity: 1;" vector-effect="non-scaling-stroke"  transform=" translate(9.44, -24.5)" d="M 0 0 C 4.55962397 2.649167 6.36313519 5.19990639 8.47265625 10.09375 C 9.07256276 14.89263961 8.93648577 19.69858621 8.91015625 24.53125 C 8.94012695 26.47741211 8.94012695 26.47741211 8.97070312 28.46289062 C 8.967107 35.48611572 8.93745585 40.50678152 4.47265625 46.09375 C -0.31852467 50.43847997 -6.48883198 50.70715396 -12.6875 50.48046875 C -18.07121429 49.74733572 -21.14825676 47.54542052 -24.90234375 43.59375 C -28.68256768 37.77802087 -27.74804163 30.92160966 -27.77734375 24.21875 C -27.79796875 23.04699219 -27.81859375 21.87523437 -27.83984375 20.66796875 C -27.87075553 13.85964871 -27.8269554 8.71129298 -23.02734375 3.44921875 C -16.42184521 -1.69412516 -8.02856375 -2.87886675 0 0 Z M -11.52734375 11.09375 C -14.442277 15.46614988 -13.85705252 19.45177061 -13.83984375 24.59375 C -13.85595703 25.55667969 -13.87207031 26.51960938 -13.88867188 27.51171875 C -13.88931641 28.43597656 -13.88996094 29.36023438 -13.890625 30.3125 C -13.89360596 31.15748047 -13.89658691 32.00246094 -13.8996582 32.87304688 C -13.447708 35.56874463 -12.70842807 36.48778405 -10.52734375 38.09375 C -8.38988453 37.84228421 -7.06808596 37.63449221 -5.52734375 36.09375 C -5.27525653 32.28786856 -5.34212031 28.46949544 -5.33984375 24.65625 C -5.32759766 23.58052734 -5.31535156 22.50480469 -5.30273438 21.39648438 C -5.30080078 20.36974609 -5.29886719 19.34300781 -5.296875 18.28515625 C -5.29276611 17.33842041 -5.28865723 16.39168457 -5.28442383 15.41625977 C -5.30117869 12.90010656 -5.30117869 12.90010656 -7.52734375 11.09375 C -8.84734375 11.09375 -10.16734375 11.09375 -11.52734375 11.09375 Z" stroke-linecap="round" />
</g>
		<g transform="matrix(1 0 0 1 -23.97 1.58)"  >
<path style="stroke: none; stroke-width: 1; stroke-dasharray: none; stroke-linecap: butt; stroke-dashoffset: 0; stroke-linejoin: miter; stroke-miterlimit: 4; fill: rgb(193,132,102); fill-rule: nonzero; opacity: 1;" vector-effect="non-scaling-stroke"  transform=" translate(9.44, -24.5)" d="M 0 0 C 4.55962397 2.649167 6.36313519 5.19990639 8.47265625 10.09375 C 9.07256276 14.89263961 8.93648577 19.69858621 8.91015625 24.53125 C 8.94012695 26.47741211 8.94012695 26.47741211 8.97070312 28.46289062 C 8.967107 35.48611572 8.93745585 40.50678152 4.47265625 46.09375 C -0.31852467 50.43847997 -6.48883198 50.70715396 -12.6875 50.48046875 C -18.07121429 49.74733572 -21.14825676 47.54542052 -24.90234375 43.59375 C -28.68256768 37.77802087 -27.74804163 30.92160966 -27.77734375 24.21875 C -27.79796875 23.04699219 -27.81859375 21.87523437 -27.83984375 20.66796875 C -27.87075553 13.85964871 -27.8269554 8.71129298 -23.02734375 3.44921875 C -16.42184521 -1.69412516 -8.02856375 -2.87886675 0 0 Z M -11.52734375 11.09375 C -14.442277 15.46614988 -13.85705252 19.45177061 -13.83984375 24.59375 C -13.85595703 25.55667969 -13.87207031 26.51960938 -13.88867188 27.51171875 C -13.88931641 28.43597656 -13.88996094 29.36023438 -13.890625 30.3125 C -13.89360596 31.15748047 -13.89658691 32.00246094 -13.8996582 32.87304688 C -13.447708 35.56874463 -12.70842807 36.48778405 -10.52734375 38.09375 C -8.38988453 37.84228421 -7.06808596 37.63449221 -5.52734375 36.09375 C -5.27525653 32.28786856 -5.34212031 28.46949544 -5.33984375 24.65625 C -5.32759766 23.58052734 -5.31535156 22.50480469 -5.30273438 21.39648438 C -5.30080078 20.36974609 -5.29886719 19.34300781 -5.296875 18.28515625 C -5.29276611 17.33842041 -5.28865723 16.39168457 -5.28442383 15.41625977 C -5.30117869 12.90010656 -5.30117869 12.90010656 -7.52734375 11.09375 C -8.84734375 11.09375 -10.16734375 11.09375 -11.52734375 11.09375 Z" stroke-linecap="round" />
</g>
		<g transform="matrix(1 0 0 1 131.45 1.17)"  >
<path style="stroke: none; stroke-width: 1; stroke-dasharray: none; stroke-linecap: butt; stroke-dashoffset: 0; stroke-linejoin: miter; stroke-miterlimit: 4; fill: rgb(193,132,101); fill-rule: nonzero; opacity: 1;" vector-effect="non-scaling-stroke"  transform=" translate(-8.5, -25)" d="M 0 0 C 5.61 0 11.22 0 17 0 C 18.85460497 6.79844758 20.70593671 13.5977746 22.55419922 20.39794922 C 23.18382622 22.71264921 23.81435756 25.0271034 24.44580078 27.34130859 C 25.35164709 30.66179704 26.2542703 33.98314695 27.15625 37.3046875 C 27.44060913 38.34430634 27.72496826 39.38392517 28.01794434 40.45504761 C 28.27821411 41.41589264 28.53848389 42.37673767 28.80664062 43.36669922 C 29.03758423 44.21497284 29.26852783 45.06324646 29.50646973 45.93722534 C 30 48 30 48 30 50 C 25.05 50 20.1 50 15 50 C 14.67 48.02 14.34 46.04 14 44 C 10.37 44 6.74 44 3 44 C 2.67 45.98 2.34 47.96 2 50 C -2.95 50 -7.9 50 -13 50 C -10.50398406 38.97592962 -7.72999669 28.04379649 -4.8125 17.125 C -4.63251465 16.45039734 -4.4525293 15.77579468 -4.26708984 15.08074951 C -1.20221938 3.60665813 -1.20221938 3.60665813 0 0 Z M 8 20 C 6.2505382 26.40215071 6.2505382 26.40215071 6 33 C 7.65 33 9.3 33 11 33 C 10.34 28.71 9.68 24.42 9 20 C 8.67 20 8.34 20 8 20 Z" stroke-linecap="round" />
</g>
		<g transform="matrix(1 0 0 1 91.89 1.11)"  >
<path style="stroke: none; stroke-width: 1; stroke-dasharray: none; stroke-linecap: butt; stroke-dashoffset: 0; stroke-linejoin: miter; stroke-miterlimit: 4; fill: rgb(192,131,101); fill-rule: nonzero; opacity: 1;" vector-effect="non-scaling-stroke"  transform=" translate(-13.03, -25.07)" d="M 0 0 C 1.1859375 0.00257812 2.371875 0.00515625 3.59375 0.0078125 C 4.7796875 0.00523438 5.965625 0.00265625 7.1875 0 C 10.09375 0.1328125 10.09375 0.1328125 11.09375 1.1328125 C 11.18233646 3.87175335 11.20898479 6.5853452 11.19140625 9.32421875 C 11.1899913 10.14405746 11.18857635 10.96389618 11.18711853 11.80857849 C 11.18150289 14.43752632 11.16894779 17.06639023 11.15625 19.6953125 C 11.15123701 21.47330607 11.14667376 23.25130096 11.14257812 25.02929688 C 11.13152839 29.39716795 11.11425331 33.76497598 11.09375 38.1328125 C 12.38152344 38.12121094 13.66929687 38.10960937 14.99609375 38.09765625 C 16.67447772 38.0882798 18.35286326 38.07917945 20.03125 38.0703125 C 21.30645508 38.05774414 21.30645508 38.05774414 22.60742188 38.04492188 C 23.41630859 38.04169922 24.22519531 38.03847656 25.05859375 38.03515625 C 25.8074585 38.02991943 26.55632324 38.02468262 27.32788086 38.01928711 C 29.09375 38.1328125 29.09375 38.1328125 30.09375 39.1328125 C 30.09375 42.7628125 30.09375 46.3928125 30.09375 50.1328125 C 18.87375 50.1328125 7.65375 50.1328125 -3.90625 50.1328125 C -3.92915338 43.17272948 -3.94908219 36.21277617 -3.96118164 29.25268555 C -3.96622341 26.88288938 -3.97305665 24.51309635 -3.98168945 22.14331055 C -3.9937619 18.74527211 -3.99947971 15.34727465 -4.00390625 11.94921875 C -4.00906754 10.88256485 -4.01422882 9.81591095 -4.01954651 8.7169342 C -4.01962204 7.73599289 -4.01969757 6.75505157 -4.01977539 5.74438477 C -4.021996 4.87612564 -4.02421661 4.00786652 -4.02650452 3.11329651 C -3.83137113 -0.10037532 -3.26811185 0.1493492 0 0 Z" stroke-linecap="round" />
</g>
		<g transform="matrix(1 0 0 1 162.89 1.13)"  >
<path style="stroke: none; stroke-width: 1; stroke-dasharray: none; stroke-linecap: butt; stroke-dashoffset: 0; stroke-linejoin: miter; stroke-miterlimit: 4; fill: rgb(170,127,107); fill-rule: nonzero; opacity: 1;" vector-effect="non-scaling-stroke"  transform=" translate(-3.78, -25.05)" d="M 0 0 C 1.93166016 0.01740234 1.93166016 0.01740234 3.90234375 0.03515625 C 5.19269531 0.04417969 6.48304688 0.05320312 7.8125 0.0625 C 8.81152344 0.07410156 9.81054688 0.08570312 10.83984375 0.09765625 C 11.16984375 1.41765625 11.49984375 2.73765625 11.83984375 4.09765625 C 11.164375 3.94167969 10.48890625 3.78570312 9.79296875 3.625 C 8.9009375 3.43035156 8.00890625 3.23570313 7.08984375 3.03515625 C 5.76726562 2.73931641 5.76726562 2.73931641 4.41796875 2.4375 C 1.81718054 2.09466883 0.3213553 2.39425381 -2.16015625 3.09765625 C -2.1854545 9.46971797 -2.20300121 15.84176679 -2.21508789 22.21386719 C -2.22012516 24.38281742 -2.22695516 26.55176425 -2.2355957 28.72070312 C -2.24768776 31.83334188 -2.25339053 34.94593585 -2.2578125 38.05859375 C -2.26297379 39.03259125 -2.26813507 40.00658875 -2.27345276 41.01010132 C -2.27352829 41.91088409 -2.27360382 42.81166687 -2.27368164 43.73974609 C -2.27590225 44.53472504 -2.27812286 45.32970398 -2.28041077 46.14877319 C -2.2827415 48.17855192 -2.2827415 48.17855192 -1.16015625 50.09765625 C -2.15015625 50.09765625 -3.14015625 50.09765625 -4.16015625 50.09765625 C -4.18542463 43.13762178 -4.20298847 36.17759905 -4.21508789 29.2175293 C -4.22012966 26.84773313 -4.2269629 24.4779401 -4.2355957 22.1081543 C -4.24766815 18.71011586 -4.25338596 15.3121184 -4.2578125 11.9140625 C -4.26297379 10.8474086 -4.26813507 9.7807547 -4.27345276 8.68177795 C -4.27352829 7.70083664 -4.27360382 6.71989532 -4.27368164 5.70922852 C -4.27590225 4.84096939 -4.27812286 3.97271027 -4.28041077 3.07814026 C -4.0775538 -0.26273198 -3.42572881 0.10586307 0 0 Z" stroke-linecap="round" />
</g>
		<g transform="matrix(1 0 0 1 181.95 -11.87)"  >
<path style="stroke: none; stroke-width: 1; stroke-dasharray: none; stroke-linecap: butt; stroke-dashoffset: 0; stroke-linejoin: miter; stroke-miterlimit: 4; fill: rgb(174,127,102); fill-rule: nonzero; opacity: 1;" vector-effect="non-scaling-stroke"  transform=" translate(0.94, -12.05)" d="M 0 0 C 1.79244141 0.01740234 1.79244141 0.01740234 3.62109375 0.03515625 C 5.41740234 0.04869141 5.41740234 0.04869141 7.25 0.0625 C 8.17683594 0.07410156 9.10367187 0.08570312 10.05859375 0.09765625 C 10.05859375 0.42765625 10.05859375 0.75765625 10.05859375 1.09765625 C 4.11859375 1.59265625 4.11859375 1.59265625 -1.94140625 2.09765625 C -1.94140625 9.02765625 -1.94140625 15.95765625 -1.94140625 23.09765625 C -2.93140625 23.42765625 -3.92140625 23.75765625 -4.94140625 24.09765625 C -6.60807292 20.76432292 -8.27473958 17.43098958 -9.94140625 14.09765625 C -10.60140625 14.09765625 -11.26140625 14.09765625 -11.94140625 14.09765625 C -11.94140625 13.43765625 -11.94140625 12.77765625 -11.94140625 12.09765625 C -11.28140625 12.09765625 -10.62140625 12.09765625 -9.94140625 12.09765625 C -9.61140625 11.10765625 -9.28140625 10.11765625 -8.94140625 9.09765625 C -7.62140625 12.06765625 -6.30140625 15.03765625 -4.94140625 18.09765625 C -4.88082031 16.88207031 -4.82023437 15.66648437 -4.7578125 14.4140625 C -4.67342293 12.82941397 -4.58877415 11.24477923 -4.50390625 9.66015625 C -4.46458984 8.85771484 -4.42527344 8.05527344 -4.38476562 7.22851562 C -3.99554115 0.13265409 -3.99554115 0.13265409 0 0 Z" stroke-linecap="round" />
</g>
		<g transform="matrix(1 0 0 1 54.62 3.17)"  >
<path style="stroke: none; stroke-width: 1; stroke-dasharray: none; stroke-linecap: butt; stroke-dashoffset: 0; stroke-linejoin: miter; stroke-miterlimit: 4; fill: rgb(178,132,111); fill-rule: nonzero; opacity: 1;" vector-effect="non-scaling-stroke"  transform=" translate(-4.67, -14)" d="M 0 0 C 0.33 0 0.66 0 1 0 C 1 8.25 1 16.5 1 25 C 2.65 24.67 4.3 24.34 6 24 C 7.18807993 21.62384014 7.12914522 20.1488258 7.1328125 17.5 C 7.13410156 16.613125 7.13539063 15.72625 7.13671875 14.8125 C 7.13285156 13.884375 7.12898438 12.95625 7.125 12 C 7.12886719 11.071875 7.13273437 10.14375 7.13671875 9.1875 C 7.13478516 7.8571875 7.13478516 7.8571875 7.1328125 6.5 C 7.13112061 5.27796875 7.13112061 5.27796875 7.12939453 4.03125 C 7.12801503 1.93149048 7.12801503 1.93149048 6 0 C 6.99 0 7.98 0 9 0 C 9.08736736 3.72901814 9.14051482 7.45777165 9.1875 11.1875 C 9.22520508 12.77014648 9.22520508 12.77014648 9.26367188 14.38476562 C 9.27817383 15.91713867 9.27817383 15.91713867 9.29296875 17.48046875 C 9.31653442 18.88655396 9.31653442 18.88655396 9.34057617 20.32104492 C 8.93729071 23.49326811 7.79632118 25.38735754 6 28 C 4.02 27.34 2.04 26.68 0 26 C 0 17.42 0 8.84 0 0 Z" stroke-linecap="round" />
</g>
		<g transform="matrix(1 0 0 1 99.49 19.62)"  >
<path style="stroke: none; stroke-width: 1; stroke-dasharray: none; stroke-linecap: butt; stroke-dashoffset: 0; stroke-linejoin: miter; stroke-miterlimit: 4; fill: rgb(180,134,114); fill-rule: nonzero; opacity: 1;" vector-effect="non-scaling-stroke"  transform=" translate(-9.54, -5.44)" d="M 0 0 C 2.97922593 -0.02683987 5.95821295 -0.04676037 8.9375 -0.0625 C 9.78763672 -0.07087891 10.63777344 -0.07925781 11.51367188 -0.08789062 C 12.32255859 -0.09111328 13.13144531 -0.09433594 13.96484375 -0.09765625 C 14.7137085 -0.10289307 15.46257324 -0.10812988 16.23413086 -0.11352539 C 18 0 18 0 19 1 C 19.07205511 2.68608966 19.08386068 4.37500659 19.0625 6.0625 C 19.05347656 6.98160156 19.04445313 7.90070313 19.03515625 8.84765625 C 19.02355469 9.55792969 19.01195312 10.26820312 19 11 C 18.34 11 17.68 11 17 11 C 17 8.03 17 5.06 17 2 C 8.585 2.495 8.585 2.495 0 3 C 0 2.01 0 1.02 0 0 Z" stroke-linecap="round" />
</g>
		<g transform="matrix(1 0 0 1 -73.05 -16.87)"  >
<path style="stroke: none; stroke-width: 1; stroke-dasharray: none; stroke-linecap: butt; stroke-dashoffset: 0; stroke-linejoin: miter; stroke-miterlimit: 4; fill: rgb(179,128,105); fill-rule: nonzero; opacity: 1;" vector-effect="non-scaling-stroke"  transform=" translate(-2.28, -7.05)" d="M 0 0 C 1.65322266 0.01740234 1.65322266 0.01740234 3.33984375 0.03515625 C 4.99693359 0.04869141 4.99693359 0.04869141 6.6875 0.0625 C 7.54214844 0.07410156 8.39679688 0.08570312 9.27734375 0.09765625 C 9.60734375 3.06765625 9.93734375 6.03765625 10.27734375 9.09765625 C 8.27734375 5.09765625 8.27734375 5.09765625 8.27734375 3.09765625 C 4.97734375 2.76765625 1.67734375 2.43765625 -1.72265625 2.09765625 C -2.38265625 6.05765625 -3.04265625 10.01765625 -3.72265625 14.09765625 C -4.38265625 13.76765625 -5.04265625 13.43765625 -5.72265625 13.09765625 C -5.41506447 11.11772084 -5.10144945 9.13872026 -4.78515625 7.16015625 C -4.61113281 6.05800781 -4.43710938 4.95585938 -4.2578125 3.8203125 C -3.53180415 0.12667877 -3.53180415 0.12667877 0 0 Z" stroke-linecap="round" />
</g>
		<g transform="matrix(1 0 0 1 -93.55 -18.37)"  >
<path style="stroke: none; stroke-width: 1; stroke-dasharray: none; stroke-linecap: butt; stroke-dashoffset: 0; stroke-linejoin: miter; stroke-miterlimit: 4; fill: rgb(175,130,111); fill-rule: nonzero; opacity: 1;" vector-effect="non-scaling-stroke"  transform=" translate(-3.34, -5.55)" d="M 0 0 C 1.93166016 0.01740234 1.93166016 0.01740234 3.90234375 0.03515625 C 5.19269531 0.04417969 6.48304688 0.05320312 7.8125 0.0625 C 8.81152344 0.07410156 9.81054688 0.08570312 10.83984375 0.09765625 C 10.83984375 1.08765625 10.83984375 2.07765625 10.83984375 3.09765625 C 7.83984375 4.09765625 7.83984375 4.09765625 5.40234375 3.09765625 C 2.61167135 2.00861336 1.58614737 2.08050676 -1.16015625 3.09765625 C -1.16015625 5.73765625 -1.16015625 8.37765625 -1.16015625 11.09765625 C -3.04243507 7.83503963 -3.7449677 4.83435318 -4.16015625 1.09765625 C -3.16015625 0.09765625 -3.16015625 0.09765625 0 0 Z" stroke-linecap="round" />
</g>
		<g transform="matrix(1 0 0 1 87.95 -8.33)"  >
<path style="stroke: none; stroke-width: 1; stroke-dasharray: none; stroke-linecap: butt; stroke-dashoffset: 0; stroke-linejoin: miter; stroke-miterlimit: 4; fill: rgb(172,123,97); fill-rule: nonzero; opacity: 1;" vector-effect="non-scaling-stroke"  transform=" translate(-1, -15.5)" d="M 0 0 C 0.99 0.33 1.98 0.66 3 1 C 3 10.9 3 20.8 3 31 C 2.67 31 2.34 31 2 31 C 1.67 21.76 1.34 12.52 1 3 C 0.34 2.67 -0.32 2.34 -1 2 C -0.67 1.34 -0.34 0.68 0 0 Z" stroke-linecap="round" />
</g>
		<g transform="matrix(1 0 0 1 131.95 -18.83)"  >
<path style="stroke: none; stroke-width: 1; stroke-dasharray: none; stroke-linecap: butt; stroke-dashoffset: 0; stroke-linejoin: miter; stroke-miterlimit: 4; fill: rgb(174,129,106); fill-rule: nonzero; opacity: 1;" vector-effect="non-scaling-stroke"  transform=" translate(-9, -5)" d="M 0 0 C 5.61 0 11.22 0 17 0 C 17.66 3.3 18.32 6.6 19 10 C 18.01 9.34 17.02 8.68 16 8 C 15.67 6.02 15.34 4.04 15 2 C 10.71 2 6.42 2 2 2 C 1.67 2.66 1.34 3.32 1 4 C 0.34 3.67 -0.32 3.34 -1 3 C -0.67 2.01 -0.34 1.02 0 0 Z" stroke-linecap="round" />
</g>
		<g transform="matrix(1 0 0 1 -89.55 16.67)"  >
<path style="stroke: none; stroke-width: 1; stroke-dasharray: none; stroke-linecap: butt; stroke-dashoffset: 0; stroke-linejoin: miter; stroke-miterlimit: 4; fill: rgb(180,132,112); fill-rule: nonzero; opacity: 1;" vector-effect="non-scaling-stroke"  transform=" translate(-3.5, -9.5)" d="M 0 0 C 0.99 0.495 0.99 0.495 2 1 C 2.58243239 3.25110118 3.06708425 5.52792827 3.5 7.8125 C 4.59088435 13.64019522 4.59088435 13.64019522 7 19 C 6.01 19 5.02 19 4 19 C 3.32713788 16.58490559 2.66153988 14.16819644 2 11.75 C 1.71382812 10.72712891 1.71382812 10.72712891 1.421875 9.68359375 C 0.50042956 6.29399088 0 3.54221024 0 0 Z" stroke-linecap="round" />
</g>
		<g transform="matrix(1 0 0 1 30.5 -11.83)"  >
<path style="stroke: none; stroke-width: 1; stroke-dasharray: none; stroke-linecap: butt; stroke-dashoffset: 0; stroke-linejoin: miter; stroke-miterlimit: 4; fill: rgb(178,129,106); fill-rule: nonzero; opacity: 1;" vector-effect="non-scaling-stroke"  transform=" translate(-2.55, -8)" d="M 0 0 C 3.1391933 2.9366647 4.90494731 4.79857974 5.09765625 9.26171875 C 5.08605469 10.06222656 5.07445312 10.86273438 5.0625 11.6875 C 5.05347656 12.49574219 5.04445313 13.30398437 5.03515625 14.13671875 C 5.02355469 14.75160156 5.01195312 15.36648437 5 16 C 4.34 15.67 3.68 15.34 3 15 C 3 12.36 3 9.72 3 7 C 2.34 7 1.68 7 1 7 C 0.67 4.69 0.34 2.38 0 0 Z" stroke-linecap="round" />
</g>
		<g transform="matrix(1 0 0 1 -33.05 -19.2)"  >
<path style="stroke: none; stroke-width: 1; stroke-dasharray: none; stroke-linecap: butt; stroke-dashoffset: 0; stroke-linejoin: miter; stroke-miterlimit: 4; fill: rgb(180,130,109); fill-rule: nonzero; opacity: 1;" vector-effect="non-scaling-stroke"  transform=" translate(7, -3.63)" d="M 0 0 C -0.99 0 -1.98 0 -3 0 C -3 0.66 -3 1.32 -3 2 C -3.54269531 2.26554687 -4.08539063 2.53109375 -4.64453125 2.8046875 C -5.35996094 3.15789062 -6.07539063 3.51109375 -6.8125 3.875 C -7.52019531 4.22304687 -8.22789062 4.57109375 -8.95703125 4.9296875 C -11.21246418 6.0656486 -11.21246418 6.0656486 -14 8 C -12.50521886 4.19510255 -10.30557786 2.33809165 -7 0 C -3.86650268 -1.04449911 -3.01031744 -0.93423645 0 0 Z" stroke-linecap="round" />
</g>
		<g transform="matrix(1 0 0 1 -96.05 -6.83)"  >
<path style="stroke: none; stroke-width: 1; stroke-dasharray: none; stroke-linecap: butt; stroke-dashoffset: 0; stroke-linejoin: miter; stroke-miterlimit: 4; fill: rgb(183,129,108); fill-rule: nonzero; opacity: 1;" vector-effect="non-scaling-stroke"  transform=" translate(-2, -6)" d="M 0 0 C 1.98 0.99 1.98 0.99 4 2 C 3.835 2.721875 3.67 3.44375 3.5 4.1875 C 3.02412881 6.86427545 2.922557 9.28949487 3 12 C 0.60926555 8.17482487 0.44033448 4.40334476 0 0 Z" stroke-linecap="round" />
</g>
		<g transform="matrix(1 0 0 1 -128.05 -53.83)"  >
<path style="stroke: none; stroke-width: 1; stroke-dasharray: none; stroke-linecap: butt; stroke-dashoffset: 0; stroke-linejoin: miter; stroke-miterlimit: 4; fill: rgb(54,112,85); fill-rule: nonzero; opacity: 1;" vector-effect="non-scaling-stroke"  transform=" translate(-3, -5)" d="M 0 0 C 2.61500768 2.36595933 4.38999603 4.86049226 6 8 C 5.67 8.66 5.34 9.32 5 10 C 1.32769295 6.92000054 0.43197635 4.7517398 0 0 Z" stroke-linecap="round" />
</g>
		<g transform="matrix(1 0 0 1 -214.55 37.17)"  >
<path style="stroke: none; stroke-width: 1; stroke-dasharray: none; stroke-linecap: butt; stroke-dashoffset: 0; stroke-linejoin: miter; stroke-miterlimit: 4; fill: rgb(24,91,69); fill-rule: nonzero; opacity: 1;" vector-effect="non-scaling-stroke"  transform=" translate(0.5, -4)" d="M 0 0 C 0.66 0 1.32 0 2 0 C 2.33 1.32 2.66 2.64 3 4 C 1.68 4.33 0.36 4.66 -1 5 C -1 5.99 -1 6.98 -1 8 C -1.99 7.67 -2.98 7.34 -4 7 C -2.68 4.69 -1.36 2.38 0 0 Z" stroke-linecap="round" />
</g>
		<g transform="matrix(1 0 0 1 7.95 -21.83)"  >
<path style="stroke: none; stroke-width: 1; stroke-dasharray: none; stroke-linecap: butt; stroke-dashoffset: 0; stroke-linejoin: miter; stroke-miterlimit: 4; fill: rgb(182,133,109); fill-rule: nonzero; opacity: 1;" vector-effect="non-scaling-stroke"  transform=" translate(3.38, -1.69)" d="M 0 0 C 0.53625 0.226875 1.0725 0.45375 1.625 0.6875 C -3.79038462 3.76442308 -3.79038462 3.76442308 -6.75 3.375 C -7.554375 3.0346875 -7.554375 3.0346875 -8.375 2.6875 C -2.95961538 -0.38942308 -2.95961538 -0.38942308 0 0 Z" stroke-linecap="round" />
</g>
		<g transform="matrix(1 0 0 1 -204.55 19.17)"  >
<path style="stroke: none; stroke-width: 1; stroke-dasharray: none; stroke-linecap: butt; stroke-dashoffset: 0; stroke-linejoin: miter; stroke-miterlimit: 4; fill: rgb(33,95,75); fill-rule: nonzero; opacity: 1;" vector-effect="non-scaling-stroke"  transform=" translate(1.5, -4)" d="M 0 0 C 0.6875 1.75 0.6875 1.75 1 4 C -0.3125 6.25 -0.3125 6.25 -2 8 C -2.66 8 -3.32 8 -4 8 C -2.87548273 5.0280615 -1.77706209 2.66559313 0 0 Z" stroke-linecap="round" />
</g>
		<g transform="matrix(1 0 0 1 -64.55 -9.33)"  >
<path style="stroke: none; stroke-width: 1; stroke-dasharray: none; stroke-linecap: butt; stroke-dashoffset: 0; stroke-linejoin: miter; stroke-miterlimit: 4; fill: rgb(182,127,104); fill-rule: nonzero; opacity: 1;" vector-effect="non-scaling-stroke"  transform=" translate(-0.5, -5.5)" d="M 0 0 C 0.33 0 0.66 0 1 0 C 1.33 3.63 1.66 7.26 2 11 C 1.67 10.34 1.34 9.68 1 9 C 0.34 8.67 -0.32 8.34 -1 8 C -0.67 5.36 -0.34 2.72 0 0 Z" stroke-linecap="round" />
</g>
</g>
</g>
</svg>