<?xml version="1.0" standalone="no"?>
<!DOCTYPE svg PUBLIC "-//W3C//DTD SVG 20010904//EN"
 "http://www.w3.org/TR/2001/REC-SVG-20010904/DTD/svg10.dtd">
<svg version="1.0" xmlns="http://www.w3.org/2000/svg"
 width="1280.000000pt" height="1170.000000pt" viewBox="0 0 1280.000000 1170.000000"
 preserveAspectRatio="xMidYMid meet">
<metadata>
Created by potrace 1.15, written by Peter Selinger 2001-2017
</metadata>
<g transform="translate(0.000000,1170.000000) scale(0.100000,-0.100000)"
fill="#000000" stroke="none">
<path d="M12060 11689 c-38 -12 -151 -96 -305 -228 -396 -339 -739 -725 -1025
-1151 l-77 -115 -154 7 c-352 15 -1618 21 -1984 9 -2342 -74 -3984 -447 -5169
-1174 -315 -193 -567 -390 -835 -652 -722 -707 -1191 -1626 -1537 -3017 -122
-490 -207 -908 -400 -1963 -252 -1386 -350 -1869 -514 -2539 -41 -166 -60
-264 -58 -295 l3 -46 95 -22 c1206 -287 2006 -414 3065 -485 250 -17 1084 -17
1315 0 1208 87 2130 318 3000 751 927 461 1686 1128 2267 1989 642 953 1075
2178 1252 3542 112 864 140 1823 81 2760 -12 187 -47 624 -60 735 l-8 80 50
70 c276 381 655 725 1083 980 178 106 432 224 603 279 l52 18 0 60 c0 59 -1
61 -46 102 -139 123 -330 245 -450 286 -69 24 -195 34 -244 19z"/>
</g>
</svg>
